<svg width="31" height="13" viewBox="0 0 31 13" fill="none" xmlns="http://www.w3.org/2000/svg">
<g filter="url(#filter0_d_126_1878)">
<path d="M5.90938 4.192C5.31204 4.192 4.88004 4.064 4.61338 3.808C4.35738 3.54133 4.22938 3.22667 4.22938 2.864V2.304C4.22938 1.94133 4.35738 1.632 4.61338 1.376C4.88004 1.10933 5.31204 0.976 5.90938 0.976C6.50671 0.976 6.93338 1.10933 7.18938 1.376C7.45604 1.632 7.58938 1.94133 7.58938 2.304V2.864C7.58938 3.22667 7.45604 3.54133 7.18938 3.808C6.93338 4.064 6.50671 4.192 5.90938 4.192ZM15.5031 4.192C14.9058 4.192 14.4738 4.064 14.2071 3.808C13.9511 3.54133 13.8231 3.22667 13.8231 2.864V2.304C13.8231 1.94133 13.9511 1.632 14.2071 1.376C14.4738 1.10933 14.9058 0.976 15.5031 0.976C16.1005 0.976 16.5271 1.10933 16.7831 1.376C17.0498 1.632 17.1831 1.94133 17.1831 2.304V2.864C17.1831 3.22667 17.0498 3.54133 16.7831 3.808C16.5271 4.064 16.1005 4.192 15.5031 4.192ZM25.0969 4.192C24.4995 4.192 24.0675 4.064 23.8009 3.808C23.5449 3.54133 23.4169 3.22667 23.4169 2.864V2.304C23.4169 1.94133 23.5449 1.632 23.8009 1.376C24.0675 1.10933 24.4995 0.976 25.0969 0.976C25.6942 0.976 26.1209 1.10933 26.3769 1.376C26.6435 1.632 26.7769 1.94133 26.7769 2.304V2.864C26.7769 3.22667 26.6435 3.54133 26.3769 3.808C26.1209 4.064 25.6942 4.192 25.0969 4.192Z" fill="black"/>
<path d="M4.61338 3.808L3.89199 4.50053L3.90612 4.51525L3.92084 4.52939L4.61338 3.808ZM7.18938 1.376L6.46799 2.06853L6.48212 2.08325L6.49684 2.09739L7.18938 1.376ZM7.18938 3.808L7.89648 4.51511L7.18938 3.808ZM5.90938 3.192C5.41875 3.192 5.30006 3.081 5.30591 3.08661L3.92084 4.52939C4.46002 5.047 5.20534 5.192 5.90938 5.192V3.192ZM5.33476 3.11547C5.2537 3.03103 5.22937 2.96302 5.22937 2.864H3.22938C3.22938 3.49031 3.46105 4.05164 3.89199 4.50053L5.33476 3.11547ZM5.22937 2.864V2.304H3.22938V2.864H5.22937ZM5.22937 2.304C5.22937 2.20603 5.25238 2.1512 5.32048 2.08311L3.90627 0.668893C3.46237 1.1128 3.22938 1.67663 3.22938 2.304H5.22937ZM5.32048 2.08311C5.32071 2.08288 5.32202 2.08159 5.32498 2.07934C5.32798 2.07707 5.33317 2.07345 5.34123 2.06884C5.35742 2.05957 5.38615 2.04576 5.43229 2.03152C5.52774 2.00206 5.6806 1.976 5.90938 1.976V-0.0240002C5.19649 -0.0240002 4.44486 0.130306 3.90627 0.668893L5.32048 2.08311ZM5.90938 1.976C6.13864 1.976 6.28855 2.00218 6.3791 2.03048C6.46505 2.05734 6.47879 2.07979 6.46799 2.06853L7.91076 0.683468C7.37773 0.128231 6.61729 -0.0240002 5.90938 -0.0240002V1.976ZM6.49684 2.09739C6.57136 2.16892 6.58938 2.2195 6.58938 2.304H8.58938C8.58938 1.66317 8.34073 1.09508 7.88191 0.654613L6.49684 2.09739ZM6.58938 2.304V2.864H8.58938V2.304H6.58938ZM6.58938 2.864C6.58938 2.94988 6.56974 3.01342 6.48227 3.10089L7.89648 4.51511C8.34234 4.06924 8.58938 3.50345 8.58938 2.864H6.58938ZM6.48227 3.10089C6.49529 3.08787 6.48091 3.11091 6.39003 3.13817C6.29549 3.16653 6.14162 3.192 5.90938 3.192V5.192C6.60822 5.192 7.36242 5.04917 7.89648 4.51511L6.48227 3.10089ZM14.2071 3.808L13.4857 4.50053L13.4999 4.51525L13.5146 4.52939L14.2071 3.808ZM16.7831 1.376L16.0617 2.06853L16.0759 2.08325L16.0906 2.09739L16.7831 1.376ZM16.7831 3.808L17.4902 4.51511L16.7831 3.808ZM15.5031 3.192C15.0125 3.192 14.8938 3.081 14.8997 3.08661L13.5146 4.52939C14.0538 5.047 14.7991 5.192 15.5031 5.192V3.192ZM14.9285 3.11547C14.8475 3.03103 14.8231 2.96302 14.8231 2.864H12.8231C12.8231 3.49031 13.0548 4.05164 13.4857 4.50053L14.9285 3.11547ZM14.8231 2.864V2.304H12.8231V2.864H14.8231ZM14.8231 2.304C14.8231 2.20603 14.8461 2.1512 14.9142 2.08311L13.5 0.668893C13.0561 1.1128 12.8231 1.67663 12.8231 2.304H14.8231ZM14.9142 2.08311C14.9145 2.08288 14.9158 2.08159 14.9187 2.07934C14.9217 2.07707 14.9269 2.07345 14.935 2.06884C14.9512 2.05957 14.9799 2.04576 15.026 2.03152C15.1215 2.00206 15.2744 1.976 15.5031 1.976V-0.0240002C14.7902 -0.0240002 14.0386 0.130306 13.5 0.668893L14.9142 2.08311ZM15.5031 1.976C15.7324 1.976 15.8823 2.00218 15.9728 2.03048C16.0588 2.05734 16.0725 2.07979 16.0617 2.06853L17.5045 0.683468C16.9715 0.128231 16.211 -0.0240002 15.5031 -0.0240002V1.976ZM16.0906 2.09739C16.1651 2.16892 16.1831 2.2195 16.1831 2.304H18.1831C18.1831 1.66317 17.9345 1.09508 17.4757 0.654613L16.0906 2.09739ZM16.1831 2.304V2.864H18.1831V2.304H16.1831ZM16.1831 2.864C16.1831 2.94988 16.1635 3.01342 16.076 3.10089L17.4902 4.51511C17.9361 4.06924 18.1831 3.50345 18.1831 2.864H16.1831ZM16.076 3.10089C16.089 3.08787 16.0747 3.11091 15.9838 3.13817C15.8892 3.16653 15.7354 3.192 15.5031 3.192V5.192C16.202 5.192 16.9562 5.04917 17.4902 4.51511L16.076 3.10089ZM23.8009 3.808L23.0795 4.50053L23.0936 4.51525L23.1083 4.52939L23.8009 3.808ZM26.3769 1.376L25.6555 2.06853L25.6696 2.08325L25.6843 2.09739L26.3769 1.376ZM26.3769 3.808L27.084 4.51511L26.3769 3.808ZM25.0969 3.192C24.6062 3.192 24.4876 3.081 24.4934 3.08661L23.1083 4.52939C23.6475 5.047 24.3928 5.192 25.0969 5.192V3.192ZM24.5223 3.11547C24.4412 3.03103 24.4169 2.96302 24.4169 2.864H22.4169C22.4169 3.49031 22.6486 4.05164 23.0795 4.50053L24.5223 3.11547ZM24.4169 2.864V2.304H22.4169V2.864H24.4169ZM24.4169 2.304C24.4169 2.20603 24.4399 2.1512 24.508 2.08311L23.0938 0.668893C22.6499 1.1128 22.4169 1.67663 22.4169 2.304H24.4169ZM24.508 2.08311C24.5082 2.08288 24.5095 2.08159 24.5125 2.07934C24.5155 2.07707 24.5207 2.07345 24.5287 2.06884C24.5449 2.05957 24.5737 2.04576 24.6198 2.03152C24.7152 2.00206 24.8681 1.976 25.0969 1.976V-0.0240002C24.384 -0.0240002 23.6324 0.130306 23.0938 0.668893L24.508 2.08311ZM25.0969 1.976C25.3261 1.976 25.4761 2.00218 25.5666 2.03048C25.6526 2.05734 25.6663 2.07979 25.6555 2.06853L27.0983 0.683468C26.5652 0.128231 25.8048 -0.0240002 25.0969 -0.0240002V1.976ZM25.6843 2.09739C25.7589 2.16892 25.7769 2.2195 25.7769 2.304H27.7769C27.7769 1.66317 27.5282 1.09508 27.0694 0.654613L25.6843 2.09739ZM25.7769 2.304V2.864H27.7769V2.304H25.7769ZM25.7769 2.864C25.7769 2.94988 25.7572 3.01342 25.6698 3.10089L27.084 4.51511C27.5298 4.06924 27.7769 3.50345 27.7769 2.864H25.7769ZM25.6698 3.10089C25.6828 3.08787 25.6684 3.11091 25.5775 3.13817C25.483 3.16653 25.3291 3.192 25.0969 3.192V5.192C25.7957 5.192 26.5499 5.04917 27.084 4.51511L25.6698 3.10089Z" fill="black"/>
</g>
<defs>
<filter id="filter0_d_126_1878" x="0.22937" y="0.976013" width="30.5475" height="11.216" filterUnits="userSpaceOnUse" color-interpolation-filters="sRGB">
<feFlood flood-opacity="0" result="BackgroundImageFix"/>
<feColorMatrix in="SourceAlpha" type="matrix" values="0 0 0 0 0 0 0 0 0 0 0 0 0 0 0 0 0 0 127 0" result="hardAlpha"/>
<feOffset dy="4"/>
<feGaussianBlur stdDeviation="2"/>
<feComposite in2="hardAlpha" operator="out"/>
<feColorMatrix type="matrix" values="0 0 0 0 0 0 0 0 0 0 0 0 0 0 0 0 0 0 0.25 0"/>
<feBlend mode="normal" in2="BackgroundImageFix" result="effect1_dropShadow_126_1878"/>
<feBlend mode="normal" in="SourceGraphic" in2="effect1_dropShadow_126_1878" result="shape"/>
</filter>
</defs>
</svg>
