<svg width="52" height="52" viewBox="0 0 52 52" fill="none" xmlns="http://www.w3.org/2000/svg">
<path d="M15.0969 34.5483H16.0969V33.5483V17.6129V7.54833C16.0969 6.80235 16.6396 6.16719 17.3764 6.05086L17.2204 5.0631L17.3764 6.05086L49.2472 1.01866C49.2472 1.01865 49.2473 1.01865 49.2473 1.01864C49.687 0.949312 50.1317 1.07546 50.4687 1.36342C50.8058 1.65156 51 2.07285 51 2.51611V12.5807V31.8709V38.5807C51 43.0353 47.0165 46.8065 41.9356 46.8065C36.8546 46.8065 32.871 43.0354 32.871 38.5807C32.871 34.1259 36.8546 30.3548 41.9356 30.3548H46.9678H47.9678V29.3548V15.5252V14.3549L46.8118 14.5374L19.9731 18.7751L19.1291 18.9084V19.7628V36.0644V42.7742C19.1291 47.2289 15.1455 51 10.0645 51C4.98356 51 1 47.2289 1 42.7742C1 38.3195 4.98355 34.5484 10.0645 34.5483H15.0969Z" fill="#FFF59F" stroke="black" stroke-width="2"/>
</svg>
