<svg width="82" height="82" viewBox="0 0 82 82" fill="none" xmlns="http://www.w3.org/2000/svg">
<g clip-path="url(#clip0_126_1727)">
<path d="M81.1596 40.9178H69.0238C69.2025 40.8386 69.3509 40.7028 69.4385 40.5257C69.5408 40.3186 69.5534 40.0784 69.4732 39.8616L63.0197 22.4217C62.8649 22.0035 62.4106 21.7792 61.9843 21.9103L57.8855 23.1712V16.8151C57.8855 16.3511 57.5092 15.9747 57.0452 15.9747H53.3748C52.9108 15.9747 52.5344 16.3511 52.5344 16.8151V19.0622H48.3368V16.8151C48.3368 16.3511 47.9605 15.9747 47.4964 15.9747H38.6933C38.2292 15.9747 37.8529 16.3511 37.8529 16.8151V19.0622H35.8633V18.3315C35.8633 17.8675 35.487 17.4911 35.0229 17.4911H29.5681V16.8153C29.5681 16.3512 29.1918 15.9749 28.7277 15.9749H19.9246C19.4605 15.9749 19.0842 16.3512 19.0842 16.8153V20.8379H13.315C12.851 20.8379 12.4747 21.2143 12.4747 21.6783V40.9181H0.840395C0.376329 40.9181 0 41.2945 0 41.7585V48.454C0 48.918 0.376329 49.2944 0.840395 49.2944H10.0399V65.1854C10.0399 65.6494 10.4162 66.0258 10.8803 66.0258H17.5735C18.0376 66.0258 18.4139 65.6494 18.4139 65.1854V49.2944H63.3639V65.1854C63.3639 65.6494 63.7402 66.0258 64.2043 66.0258H70.8975C71.3616 66.0258 71.7379 65.6494 71.7379 65.1854V49.2944H81.1596C81.6237 49.2944 82 48.918 82 48.454V41.7585C82 41.2941 81.6237 40.9178 81.1596 40.9178ZM61.7191 23.7502L67.5882 39.6115L63.9806 40.7213L58.1115 24.86L61.7191 23.7502ZM62.2612 40.9178H57.8855V29.093L62.2612 40.9178ZM54.2152 17.6553H56.2048V24.0978C56.1668 24.2373 56.1688 24.3839 56.2048 24.5247V40.9176H54.2152V19.9024V17.6553ZM52.5344 20.7428V40.9178H48.3368V20.7428H52.5344ZM39.5337 17.6553H46.656V19.9024V40.9178H39.5337V19.9024V17.6553ZM37.8529 20.7428V40.9178H35.8633V20.7428H37.8529ZM34.1825 19.1716V19.9022V40.9176H29.5681V19.1716H34.1825ZM20.765 17.6553H27.8873V18.2751C27.886 18.294 27.8816 18.312 27.8816 18.3312V40.9176H20.765V21.678V17.6553ZM14.1554 22.5184H19.0842V40.9178H14.1554V22.5184ZM13.315 42.5986H19.9246H28.722H28.7277H35.0229H38.6933H47.4964H53.3748H57.0452H63.4659C63.4666 42.5986 63.4673 42.5988 63.4681 42.5988C63.4688 42.5988 63.4696 42.5986 63.4703 42.5986H80.3192V45.1132H1.68079V42.5986H13.315ZM16.7331 64.3447H11.7206V49.294H13.3865V50.126C13.3865 50.5901 13.7628 50.9664 14.2269 50.9664C14.6909 50.9664 15.0673 50.5901 15.0673 50.126V49.294H16.7331V64.3447ZM70.0572 64.3447H65.0447V49.294H66.7105V50.126C66.7105 50.5901 67.0869 50.9664 67.5509 50.9664C68.015 50.9664 68.3913 50.5901 68.3913 50.126V49.294H70.0572V64.3447ZM70.8975 47.6132H67.5704C67.5637 47.6131 67.5576 47.6112 67.5509 47.6112C67.5442 47.6112 67.538 47.6131 67.5314 47.6132H64.2043H17.5735H14.2464C14.2396 47.6131 14.2336 47.6112 14.2269 47.6112C14.2202 47.6112 14.2139 47.6131 14.2074 47.6132H10.8803H1.68079V46.794H80.3192V47.6132H70.8975ZM15.43 61.8384C15.43 62.5028 14.8913 63.0415 14.2269 63.0415C13.5625 63.0415 13.0238 62.5028 13.0238 61.8384C13.0238 61.174 13.5625 60.6353 14.2269 60.6353C14.8915 60.6353 15.43 61.1738 15.43 61.8384ZM68.9762 61.8384C68.9762 62.5028 68.4375 63.0415 67.7731 63.0415C67.1087 63.0415 66.57 62.5028 66.57 61.8384C66.57 61.174 67.1087 60.6353 67.7731 60.6353C68.4375 60.6353 68.9762 61.1738 68.9762 61.8384ZM13.3865 59.2831V53.4898C13.3865 53.0257 13.7628 52.6494 14.2269 52.6494C14.6909 52.6494 15.0673 53.0257 15.0673 53.4898V59.2831C15.0673 59.7472 14.6909 60.1235 14.2269 60.1235C13.7628 60.1235 13.3865 59.7472 13.3865 59.2831ZM66.7105 59.2831V53.4898C66.7105 53.0257 67.0869 52.6494 67.5509 52.6494C68.015 52.6494 68.3913 53.0257 68.3913 53.4898V59.2831C68.3913 59.7472 68.015 60.1235 67.5509 60.1235C67.0869 60.1235 66.7105 59.7472 66.7105 59.2831Z" fill="white"/>
<rect x="39" y="16" width="8" height="25" fill="white"/>
</g>
<defs>
<clipPath id="clip0_126_1727">
<rect width="82" height="82" fill="white"/>
</clipPath>
</defs>
</svg>
