<svg width="65" height="65" viewBox="0 0 65 65" fill="none" xmlns="http://www.w3.org/2000/svg">
<path d="M46.8873 25.5166V19.7844L48.7866 20.0078V15.7117L25.8558 12.2017L0 17.1234V22.1467L2.39687 21.8136V35.7723H9.34984V48.8008L42.3577 52.8003L48.1975 52.0934V35.3722L58.5711 35.4047V50.8341L63.3913 50.2511V29.8614L65 29.9406V26.8856L46.8873 25.5166ZM44.5534 21.7689V26.7963L37.6452 26.9242V21.0661L44.5534 21.7689ZM5.98812 22.5895L21.6673 20.6009V31.7931L5.98812 32.3131V22.5895ZM12.4292 45.8352V35.7703H18.8927V46.4222L12.4292 45.8352ZM20.5359 46.5339V35.7663H25.8538V35.7459H28.013V47.2123L20.5359 46.5339ZM29.5892 47.4216V35.75L38.2972 35.752V48.2178L29.5892 47.4216Z" fill="white"/>
</svg>
