<svg width="50" height="50" viewBox="0 0 50 50" fill="none" xmlns="http://www.w3.org/2000/svg">
<g clip-path="url(#clip0_114_1491)">
<path d="M40.25 39.4167L38.3333 41.3334V31.6667C38.3333 31.1667 38 30.8334 37.5 30.8334C37 30.8334 36.6667 31.1667 36.6667 31.6667V41.3334L34.75 39.4167C34.4167 39.0834 33.9167 39.0834 33.5833 39.4167C33.25 39.75 33.25 40.25 33.5833 40.5834L36.774 43.7741C36.9103 44.0191 37.168 44.1667 37.4999 44.1667C37.8318 44.1667 38.0896 44.0191 38.2258 43.7741L41.4165 40.5834C41.7498 40.2501 41.7498 39.7501 41.4165 39.4167C41.0833 39.0833 40.5833 39.0833 40.25 39.4167Z" fill="#5B5B5B"/>
<path d="M46.6667 28.9927V23.3333V6.1667V0.833301C46.6667 0.333301 46.3334 0 45.8334 0H40.5H17.5H10.8333H0.833301C0.333301 0 0 0.333301 0 0.833301V10.8333V17.5V40.5V45.8333C0 46.3333 0.333301 46.6666 0.833301 46.6666H6.1666H28.9926C31.222 48.7359 34.2099 50 37.5 50C44.4167 50 50 44.4167 50 37.5C50 34.2099 48.7359 31.222 46.6667 28.9927ZM25.01 37.9786C25.0107 37.9984 25.0113 38.0182 25.0122 38.038C25.1221 40.647 26.0265 43.0462 27.4913 45.0001H8.1667L31.75 21.4167L35.4398 25.169C29.5077 26.1481 25 31.2854 25 37.5C25 37.6604 25.004 37.8197 25.01 37.9786ZM45 21.3626L38.3333 14.8334L45 8.1667V21.3626ZM18.3333 1.6667H38.5L18.3333 21.8333V1.6667ZM10 1.6667V10H1.6667V1.6667H10ZM1.6667 18.3333H10V30.1666L1.6667 38.5V18.3333ZM1.6667 45V40.9167L11.4167 31.0834C11.5834 30.9167 11.6667 30.7501 11.6667 30.5001V17.5C11.6667 17 11.3334 16.6667 10.8334 16.6667H1.6667V11.6667H10.8334C11.3334 11.6667 11.6667 11.3334 11.6667 10.8334V1.6667H16.6667V23.8334C16.6667 24.1667 16.8334 24.5001 17.1667 24.5834C17.5 24.7501 17.8334 24.6667 18.0834 24.4167L40.9167 1.6667H45V5.75L36.5 14.25C36.3333 14.4167 36.25 14.5833 36.25 14.8333C36.25 15.0833 36.3333 15.25 36.5 15.4166L45 23.6666V27.4912C43.4481 26.3277 41.6152 25.5181 39.6195 25.1788C39.5703 25.1702 39.521 25.1624 39.4717 25.1544C39.4123 25.145 39.3527 25.1363 39.2931 25.1278C38.8289 25.0598 38.3601 25.0188 37.888 25.0064C37.8263 25.0046 37.7645 25.0034 37.7025 25.0024C37.6628 25.0021 37.6232 24.9999 37.5834 24.9999L32.3334 19.6666C32.1667 19.4999 32.0001 19.4166 31.7501 19.4166C31.5001 19.4166 31.3334 19.4999 31.1668 19.6666L5.8333 45H1.6667ZM37.5 48.3333C34.5211 48.3333 31.8303 47.1415 29.8752 45.2075C27.8831 43.1949 26.7402 40.5689 26.6701 37.7739C26.6679 37.6829 26.6667 37.5916 26.6667 37.5C26.6667 31.5 31.5 26.6667 37.5 26.6667C37.5916 26.6667 37.6829 26.6679 37.7739 26.6701C40.5689 26.7403 43.1949 27.8831 45.2075 29.8752C47.1415 31.8302 48.3333 34.5211 48.3333 37.5C48.3333 43.5 43.5 48.3333 37.5 48.3333Z" fill="#5B5B5B"/>
<g clip-path="url(#clip1_114_1491)">
<path d="M40.25 39.4167L38.3333 41.3334V31.6667C38.3333 31.1667 38 30.8334 37.5 30.8334C37 30.8334 36.6667 31.1667 36.6667 31.6667V41.3334L34.75 39.4167C34.4167 39.0834 33.9167 39.0834 33.5833 39.4167C33.25 39.75 33.25 40.25 33.5833 40.5834L36.774 43.7741C36.9103 44.0191 37.168 44.1667 37.4999 44.1667C37.8318 44.1667 38.0896 44.0191 38.2258 43.7741L41.4165 40.5834C41.7498 40.2501 41.7498 39.7501 41.4165 39.4167C41.0833 39.0833 40.5833 39.0833 40.25 39.4167Z" fill="white"/>
<path d="M46.6667 28.9927V23.3333V6.1667V0.833301C46.6667 0.333301 46.3334 0 45.8334 0H40.5H17.5H10.8333H0.833301C0.333301 0 0 0.333301 0 0.833301V10.8333V17.5V40.5V45.8333C0 46.3333 0.333301 46.6666 0.833301 46.6666H6.1666H28.9926C31.222 48.7359 34.2099 50 37.5 50C44.4167 50 50 44.4167 50 37.5C50 34.2099 48.7359 31.222 46.6667 28.9927ZM25.01 37.9786C25.0107 37.9984 25.0113 38.0182 25.0122 38.038C25.1221 40.647 26.0265 43.0462 27.4913 45.0001H8.1667L31.75 21.4167L35.4398 25.169C29.5077 26.1481 25 31.2854 25 37.5C25 37.6604 25.004 37.8197 25.01 37.9786ZM45 21.3626L38.3333 14.8334L45 8.1667V21.3626ZM18.3333 1.6667H38.5L18.3333 21.8333V1.6667ZM10 1.6667V10H1.6667V1.6667H10ZM1.6667 18.3333H10V30.1666L1.6667 38.5V18.3333ZM1.6667 45V40.9167L11.4167 31.0834C11.5834 30.9167 11.6667 30.7501 11.6667 30.5001V17.5C11.6667 17 11.3334 16.6667 10.8334 16.6667H1.6667V11.6667H10.8334C11.3334 11.6667 11.6667 11.3334 11.6667 10.8334V1.6667H16.6667V23.8334C16.6667 24.1667 16.8334 24.5001 17.1667 24.5834C17.5 24.7501 17.8334 24.6667 18.0834 24.4167L40.9167 1.6667H45V5.75L36.5 14.25C36.3333 14.4167 36.25 14.5833 36.25 14.8333C36.25 15.0833 36.3333 15.25 36.5 15.4166L45 23.6666V27.4912C43.4481 26.3277 41.6152 25.5181 39.6195 25.1788C39.5703 25.1702 39.521 25.1624 39.4717 25.1544C39.4123 25.145 39.3527 25.1363 39.2931 25.1278C38.8289 25.0598 38.3601 25.0188 37.888 25.0064C37.8263 25.0046 37.7645 25.0034 37.7025 25.0024C37.6628 25.0021 37.6232 24.9999 37.5834 24.9999L32.3334 19.6666C32.1667 19.4999 32.0001 19.4166 31.7501 19.4166C31.5001 19.4166 31.3334 19.4999 31.1668 19.6666L5.8333 45H1.6667ZM37.5 48.3333C34.5211 48.3333 31.8303 47.1415 29.8752 45.2075C27.8831 43.1949 26.7402 40.5689 26.6701 37.7739C26.6679 37.6829 26.6667 37.5916 26.6667 37.5C26.6667 31.5 31.5 26.6667 37.5 26.6667C37.5916 26.6667 37.6829 26.6679 37.7739 26.6701C40.5689 26.7403 43.1949 27.8831 45.2075 29.8752C47.1415 31.8302 48.3333 34.5211 48.3333 37.5C48.3333 43.5 43.5 48.3333 37.5 48.3333Z" fill="white"/>
</g>
</g>
<defs>
<clipPath id="clip0_114_1491">
<rect width="50" height="50" fill="white"/>
</clipPath>
<clipPath id="clip1_114_1491">
<rect width="50" height="50" fill="white"/>
</clipPath>
</defs>
</svg>
